<?xml version="1.0" encoding="utf-8"?>
<!-- Generator: Adobe Illustrator 16.0.0, SVG Export Plug-In . SVG Version: 6.00 Build 0)  -->
<!DOCTYPE svg PUBLIC "-//W3C//DTD SVG 1.0//EN" "http://www.w3.org/TR/2001/REC-SVG-20010904/DTD/svg10.dtd">
<svg version="1.0" xmlns="http://www.w3.org/2000/svg" xmlns:xlink="http://www.w3.org/1999/xlink" x="0px" y="0px" width="1700px"
	 height="1000px" viewBox="0 0 1700 1000" enable-background="new 0 0 1700 1000" xml:space="preserve">
<g id="background">
	<g>
		<g>
			<g>
				<g>
					<path fill-rule="evenodd" clip-rule="evenodd" fill="#193145" d="M493.068,624.996c-3.643,0-6.943,1.463-9.352,3.83v-22.375
						H91.889v22.375c-2.408-2.367-5.708-3.83-9.352-3.83c-7.371,0-13.347,5.975-13.347,13.347c0,7.37,5.976,13.348,13.347,13.348
						c3.644,0,6.943-1.466,9.352-3.832v22.377h391.828v-22.377c2.408,2.366,5.709,3.832,9.352,3.832
						c7.372,0,13.346-5.978,13.346-13.348C506.414,630.971,500.44,624.996,493.068,624.996z"/>
					<path fill-rule="evenodd" clip-rule="evenodd" fill="#2F4657" d="M493.068,619.604c-3.643,0-6.943,1.463-9.352,3.831V601.06
						H91.889v22.376c-2.408-2.368-5.708-3.831-9.352-3.831c-7.371,0-13.347,5.975-13.347,13.348c0,7.37,5.976,13.346,13.347,13.346
						c3.644,0,6.943-1.463,9.352-3.832v22.378h391.828v-22.378c2.408,2.369,5.709,3.832,9.352,3.832
						c7.372,0,13.346-5.976,13.346-13.346C506.414,625.579,500.44,619.604,493.068,619.604z"/>
				</g>
				<g>
					<path fill-rule="evenodd" clip-rule="evenodd" fill="#041F33" d="M470.682,212.627H104.924
						c-17.615,0-31.893,14.28-31.893,31.894c0,17.612,14.277,31.892,31.893,31.892h365.758c17.613,0,31.893-14.279,31.893-31.892
						C502.574,226.907,488.295,212.627,470.682,212.627z M96.83,246.208c-3.357,0-6.079-2.722-6.079-6.079
						c0-3.359,2.722-6.08,6.079-6.08c3.358,0,6.08,2.721,6.08,6.08C102.91,243.486,100.188,246.208,96.83,246.208z M478.774,246.208
						c-3.357,0-6.079-2.722-6.079-6.079c0-3.359,2.722-6.08,6.079-6.08s6.079,2.721,6.079,6.08
						C484.854,243.486,482.132,246.208,478.774,246.208z"/>
					<path fill-rule="evenodd" clip-rule="evenodd" fill="#193145" d="M470.682,208.236H104.924
						c-17.615,0-31.893,14.279-31.893,31.893c0,17.612,14.277,31.893,31.893,31.893h365.758c17.613,0,31.893-14.28,31.893-31.893
						C502.574,222.516,488.295,208.236,470.682,208.236z M96.83,246.208c-3.357,0-6.079-2.722-6.079-6.079
						c0-3.359,2.722-6.08,6.079-6.08c3.358,0,6.08,2.721,6.08,6.08C102.91,243.486,100.188,246.208,96.83,246.208z M478.774,246.208
						c-3.357,0-6.079-2.722-6.079-6.079c0-3.359,2.722-6.08,6.079-6.08s6.079,2.721,6.079,6.08
						C484.854,243.486,482.132,246.208,478.774,246.208z"/>
				</g>
				<g>
					<polygon fill-rule="evenodd" clip-rule="evenodd" fill="#041F33" points="454.961,798.503 494.262,798.503 469.996,758.659 
											"/>
					<g>
						<polygon fill-rule="evenodd" clip-rule="evenodd" fill="#041F33" points="120.645,735.007 81.343,735.007 105.609,774.853 
													"/>
						<polygon fill-rule="evenodd" clip-rule="evenodd" fill="#2F4657" points="300.453,735.007 215.248,735.007 111.732,735.007 
							81.832,798.503 245.149,798.503 360.357,798.503 463.872,798.503 493.773,735.007 						"/>
					</g>
				</g>
				<polygon fill-rule="evenodd" clip-rule="evenodd" fill="#2F4657" points="502.574,147.779 73.031,147.779 92.867,113.553 
					73.031,79.324 502.574,79.324 482.737,113.553 				"/>
				<g>
					<g>
						<polygon fill-rule="evenodd" clip-rule="evenodd" fill="#193145" points="426.397,346.936 502.455,346.936 479.715,383.498 
							502.455,420.062 426.397,420.062 426.397,383.498 						"/>
						<polygon fill-rule="evenodd" clip-rule="evenodd" fill="#041F33" points="469.461,399.929 426.397,420.062 426.397,399.929 
													"/>
					</g>
					<polygon fill-rule="evenodd" clip-rule="evenodd" fill="#2F4657" points="469.461,399.929 73.149,399.929 95.891,363.366 
						73.149,326.803 469.461,326.803 469.461,363.366 					"/>
				</g>
				<g>
					<rect x="100.378" y="472.646" fill-rule="evenodd" clip-rule="evenodd" fill="#2F4657" width="374.849" height="63.785"/>
					<g>
						<polygon fill-rule="evenodd" clip-rule="evenodd" fill="#193145" points="508.795,528.802 475.227,528.802 475.227,480.277 
							508.795,480.277 501.016,504.54 						"/>
						<polygon fill-rule="evenodd" clip-rule="evenodd" fill="#041F33" points="475.227,472.646 488.352,480.277 488.352,528.802 
							475.227,536.432 						"/>
					</g>
					<g>
						<polygon fill-rule="evenodd" clip-rule="evenodd" fill="#193145" points="66.811,480.277 100.378,480.277 100.378,528.802 
							66.811,528.802 74.588,504.538 						"/>
						<polygon fill-rule="evenodd" clip-rule="evenodd" fill="#041F33" points="100.378,536.432 87.252,528.802 87.252,480.277 
							100.378,472.646 						"/>
					</g>
				</g>
				<g>
					<polygon fill="#193145" points="140.5,866.073 100.656,866.073 89.637,866.073 81.954,866.073 86.402,871.308 81.343,876.925 
						86.402,882.542 81.343,888.161 86.096,893.586 81.343,899.012 81.648,899.202 81.343,899.394 86.097,904.82 81.343,910.248 
						86.402,915.863 81.343,921.48 86.402,927.098 81.954,932.334 89.637,932.334 100.656,932.334 140.5,932.334 					"/>
					<polygon fill="#193145" points="435.104,932.334 474.949,932.334 485.968,932.334 493.65,932.334 489.203,927.1 
						494.262,921.482 489.203,915.865 494.262,910.246 489.508,904.821 494.262,899.396 493.957,899.205 494.262,899.014 
						489.508,893.587 494.262,888.159 489.203,882.544 494.262,876.927 489.203,871.31 493.65,866.073 485.968,866.073 
						474.949,866.073 435.104,866.073 					"/>
					<rect x="140.5" y="866.073" fill-rule="evenodd" clip-rule="evenodd" fill="#2F4657" width="294.604" height="66.261"/>
				</g>
			</g>
			<g>
				<g>
					<g>
						<polygon fill-rule="evenodd" clip-rule="evenodd" fill="#193145" points="998.773,84.281 1062.1,84.281 1043.166,114.723 
							1062.1,145.166 998.773,145.166 998.773,114.723 						"/>
						<polygon fill-rule="evenodd" clip-rule="evenodd" fill="#041F33" points="1034.629,128.403 998.773,145.166 998.773,128.403 
													"/>
					</g>
					<g>
						<g>
							<polygon fill-rule="evenodd" clip-rule="evenodd" fill="#193145" points="704.461,84.281 641.135,84.281 660.068,114.723 
								641.135,145.166 704.461,145.166 704.461,114.723 							"/>
							<polygon fill-rule="evenodd" clip-rule="evenodd" fill="#041F33" points="668.605,128.403 704.461,145.166 704.461,128.403 
															"/>
						</g>
						<polygon fill-rule="evenodd" clip-rule="evenodd" fill="#2F4657" points="1014.127,67.518 689.105,67.518 668.605,67.518 
							668.605,97.961 668.605,128.403 689.105,128.403 1014.127,128.403 1034.629,128.403 1034.629,97.961 1034.629,67.518 						
							"/>
					</g>
				</g>
				<g>
					<g>
						<path fill="#041F33" d="M648.643,211.486c-2.016,0-3.65,1.642-3.65,3.667v3.538c-1.441-2.135-3.875-3.538-6.637-3.538
							c-4.425,0-8.012,3.604-8.012,8.048c0,4.445,3.587,8.049,8.012,8.049c2.762,0,5.195-1.403,6.637-3.538v3.538
							c0,2.025,1.635,3.667,3.65,3.667s3.65-1.642,3.65-3.667v-16.097C652.293,213.128,650.658,211.486,648.643,211.486z"/>
						<path fill="#041F33" d="M1054.592,234.917c2.016,0,3.65-1.642,3.65-3.667v-3.538c1.439,2.135,3.875,3.538,6.635,3.538
							c4.426,0,8.014-3.604,8.014-8.048c0-4.445-3.588-8.049-8.014-8.049c-2.76,0-5.195,1.403-6.635,3.538v-3.538
							c0-2.025-1.635-3.667-3.65-3.667s-3.65,1.642-3.65,3.667v16.097C1050.941,233.275,1052.576,234.917,1054.592,234.917z"/>
					</g>
					<path fill="#2F4657" d="M1047.219,208.236H655.532c-2.056,0-3.722,1.749-3.722,3.906v57.223c0,1.432,0.747,2.75,1.947,3.434
						c1.199,0.682,2.658,0.622,3.803-0.159l5.708-3.896l6.272,4.281c1.232,0.842,2.822,0.842,4.057,0l6.273-4.281l6.273,4.281
						c1.234,0.842,2.824,0.841,4.059-0.001l6.27-4.28l6.271,4.281c1.234,0.842,2.824,0.842,4.059,0l6.273-4.281l5.709,3.896
						c1.233,0.842,2.823,0.841,4.057,0l5.707-3.896l6.271,4.281c1.234,0.842,2.824,0.842,4.059,0l6.273-4.281l6.273,4.281
						c1.234,0.842,2.824,0.841,4.059-0.001l6.27-4.28l6.271,4.281c1.234,0.842,2.825,0.842,4.059,0l6.272-4.281l5.71,3.896
						c1.232,0.842,2.823,0.842,4.058,0l5.706-3.896l6.271,4.281c1.234,0.842,2.824,0.842,4.059,0l6.271-4.281l6.277,4.281
						c1.23,0.841,2.822,0.841,4.057-0.001l6.27-4.28l6.271,4.281c1.234,0.842,2.826,0.842,4.059,0l6.273-4.281l5.709,3.896
						c1.234,0.842,2.822,0.841,4.059,0l5.705-3.896l6.271,4.281c1.234,0.842,2.824,0.842,4.059,0l6.271-4.281l6.275,4.281
						c1.232,0.842,2.824,0.841,4.057-0.001l6.27-4.28l6.273,4.281c0.617,0.421,1.322,0.631,2.029,0.631s1.41-0.21,2.027-0.631
						l6.273-4.281l5.711,3.896c1.232,0.842,2.824,0.842,4.057,0l5.707-3.896l6.271,4.281c1.234,0.842,2.824,0.842,4.059,0
						l6.271-4.281l6.273,4.281c1.236,0.842,2.824,0.841,4.061-0.001l6.27-4.28l6.271,4.281c1.234,0.842,2.824,0.842,4.059,0
						l6.271-4.281l5.709,3.896c1.234,0.842,2.824,0.841,4.059,0l5.707-3.896l6.271,4.281c1.234,0.842,2.824,0.842,4.059,0
						l6.271-4.281l6.277,4.281c1.23,0.841,2.822,0.841,4.055-0.001l6.271-4.28l6.271,4.281c1.234,0.842,2.824,0.842,4.059,0
						l6.271-4.281l5.711,3.896c1.143,0.781,2.602,0.841,3.803,0.158c1.199-0.684,1.947-2.001,1.947-3.433v-57.223
						C1050.941,209.985,1049.275,208.236,1047.219,208.236z"/>
				</g>
				<g>
					<path fill="#193145" d="M1037.309,348.399h-128.18H819.08H641.318v35.419c0,13.691,11.1,24.792,24.791,24.792h128.18h90.049
						H1062.1v-35.419C1062.1,359.5,1051,348.399,1037.309,348.399z"/>
					<path fill="#2F4657" d="M1037.309,341.399h-128.18H819.08H641.318v35.419c0,13.691,11.1,24.792,24.791,24.792h128.18h90.049
						h154.49l23.088,19.854l0.184-19.854v-35.419C1062.1,352.5,1051,341.399,1037.309,341.399z"/>
				</g>
				<g>
					<polygon fill-rule="evenodd" clip-rule="evenodd" fill="#193145" points="1053.402,668.447 658.408,668.447 637.921,632.953 
						658.408,597.456 1053.402,597.456 1073.891,632.953 					"/>
					<polygon fill-rule="evenodd" clip-rule="evenodd" fill="#2F4657" points="664.396,658.076 649.895,632.953 664.396,607.826 
						1047.414,607.826 1061.916,632.953 1047.414,658.076 					"/>
				</g>
				<g>
					<rect x="643.557" y="729.001" fill="#2F4657" width="410.547" height="75.508"/>
					<g>
						<g>
							<path fill="#193145" d="M650.797,803.699c0,5.46-4.426,9.886-9.887,9.886l0,0c-5.459,0-9.886-4.426-9.886-9.886v-64.813
								c0-5.46,4.427-9.886,9.886-9.886l0,0c5.461,0,9.887,4.426,9.887,9.886V803.699z"/>
							<path fill="#193145" d="M1066.635,803.699c0,5.46-4.426,9.886-9.885,9.886l0,0c-5.461,0-9.887-4.426-9.887-9.886v-64.813
								c0-5.46,4.426-9.886,9.887-9.886l0,0c5.459,0,9.885,4.426,9.885,9.886V803.699z"/>
						</g>
						<g>
							<path fill="#041F33" d="M650.797,803.699c0,5.46-4.426,9.886-9.887,9.886l0,0c-5.459,0-9.886-4.426-9.886-9.886v-0.161
								c0-5.46,4.427-9.886,9.886-9.886l0,0c5.461,0,9.887,4.426,9.887,9.886V803.699z"/>
							<path fill="#041F33" d="M1066.635,803.699c0,5.46-4.426,9.886-9.885,9.886l0,0c-5.461,0-9.887-4.426-9.887-9.886v-0.161
								c0-5.46,4.426-9.886,9.887-9.886l0,0c5.459,0,9.885,4.426,9.885,9.886V803.699z"/>
						</g>
					</g>
				</g>
				<g>
					<path fill="#2F4657" d="M1069.334,893.422l-26.635-25.375c-1.33-1.267-3.096-1.974-4.932-1.974h-404.51
						c-3.947,0-7.148,3.201-7.148,7.148v50.75c0,3.947,3.201,7.148,7.148,7.148h404.51c1.836,0,3.602-0.707,4.932-1.974
						l26.635-25.373c1.416-1.349,2.217-3.22,2.217-5.176S1070.75,894.771,1069.334,893.422z"/>
					<path fill="#193145" d="M676.096,854.92h-20.523h-5.462h-15.124c-4.902,0-8.877,3.975-8.877,8.876v60.846
						c0-4.901,3.975-8.876,8.877-8.876h20.586v-0.029h20.523c3.404,0,6.164-2.761,6.164-6.164v-25.238v-9.833v-13.417
						C682.26,857.681,679.5,854.92,676.096,854.92z"/>
				</g>
			</g>
			<g>
				<g>
					<g>
						<path fill="#2F4657" d="M1594.491,463.418h-234.345c-0.081,11.17-0.747,22.326-1.452,33.521
							c-0.267,4.233-0.572,8.478-0.78,12.728c0.284,6.281,0.735,12.551,1.375,18.799h235.202c3.948,0,7.148-3.201,7.148-7.148
							v-50.75C1601.64,466.619,1598.439,463.418,1594.491,463.418z"/>
						<path fill="#041F33" d="M1570.174,539.617h20.523h5.462h-3.396c4.901,0,8.876-3.975,8.876-8.875v-60.846
							c0,4.9-3.975,8.875-8.876,8.875h-2.066v0.029h-20.523c-3.403,0-6.163,2.762-6.163,6.164v25.238v9.834v13.416
							C1564.011,536.857,1566.771,539.617,1570.174,539.617z"/>
					</g>
					<path fill="#193145" d="M1613.998,549.662h-20.523h-5.462h-15.125c-4.901,0-8.876-3.975-8.876-8.877v-54.846
						c0,4.902,3.975,8.877,8.876,8.877h20.587v0.029h20.523c3.403,0,6.163,2.761,6.163,6.164v25.238v9.832v7.418
						C1620.161,546.9,1617.401,549.662,1613.998,549.662z"/>
				</g>
				<g>
					<g>
						<path fill="#2F4657" d="M1223.115,463.418h234.345c0.081,11.17,0.747,22.326,1.452,33.521
							c0.267,4.233,0.572,8.478,0.78,12.728c-0.284,6.281-0.735,12.551-1.375,18.799h-235.202c-3.948,0-7.148-3.201-7.148-7.148
							v-50.75C1215.967,466.619,1219.167,463.418,1223.115,463.418z"/>
						<path fill="#041F33" d="M1247.433,539.617h-20.523h-5.462h3.396c-4.901,0-8.876-3.975-8.876-8.875v-60.846
							c0,4.9,3.975,8.875,8.876,8.875h2.066v0.029h20.523c3.403,0,6.163,2.762,6.163,6.164v25.238v9.834v13.416
							C1253.596,536.857,1250.836,539.617,1247.433,539.617z"/>
					</g>
					<path fill="#193145" d="M1203.608,549.662h20.523h5.462h15.125c4.901,0,8.876-3.975,8.876-8.877v-54.846
						c0,4.902-3.975,8.877-8.876,8.877h-20.587v0.029h-20.523c-3.403,0-6.163,2.761-6.163,6.164v25.238v9.832v7.418
						C1197.445,546.9,1200.205,549.662,1203.608,549.662z"/>
				</g>
			</g>
			<g>
				<path fill="#193145" d="M1619.864,88.521c1.238,0,2.242-1.003,2.242-2.24c0-1.238-1.004-2.242-2.242-2.242h-14.359V74h14.359
					c1.238,0,2.242-1.004,2.242-2.241s-1.004-2.241-2.242-2.241H1196.63c-1.236,0-2.24,1.004-2.24,2.241s1.004,2.241,2.24,2.241
					h14.361v10.039h-14.361c-1.236,0-2.24,1.004-2.24,2.242c0,1.237,1.004,2.24,2.24,2.24h14.361v10.04h-14.361
					c-1.236,0-2.24,1.003-2.24,2.241s1.004,2.241,2.24,2.241h14.361v10.04h-14.361c-1.236,0-2.24,1.003-2.24,2.24
					c0,1.238,1.004,2.242,2.24,2.242h14.361v10.039h-14.361c-1.236,0-2.24,1.004-2.24,2.241s1.004,2.241,2.24,2.241h423.234
					c1.238,0,2.242-1.004,2.242-2.241s-1.004-2.241-2.242-2.241h-14.359v-10.039h14.359c1.238,0,2.242-1.004,2.242-2.242
					c0-1.237-1.004-2.24-2.242-2.24h-14.359v-10.04h14.359c1.238,0,2.242-1.003,2.242-2.241s-1.004-2.241-2.242-2.241h-14.359
					v-10.04H1619.864z"/>
				<rect x="1223.608" y="69.518" fill="#2F4657" width="367.674" height="62.57"/>
			</g>
			<g>
				<path fill="#FFB5CD" d="M1247.711,209.908c-0.006,0-0.01,0.002-0.016,0.002c0.009,0,0.018-0.002,0.026-0.002H1247.711z"/>
				<path fill="#FFB5CD" d="M1246.601,210.199c0.021-0.012,0.04-0.025,0.061-0.035
					C1246.641,210.174,1246.621,210.188,1246.601,210.199z"/>
				<path fill="#FFB5CD" d="M1247.113,209.992c0.034-0.01,0.068-0.016,0.104-0.023
					C1247.182,209.977,1247.147,209.982,1247.113,209.992z"/>
				<path fill="#FFB5CD" d="M1246.164,210.509c0.024-0.022,0.051-0.042,0.076-0.063
					C1246.215,210.467,1246.188,210.486,1246.164,210.509z"/>
				<path fill="#193145" d="M1250.021,212.219c0-0.994-0.637-1.877-1.58-2.191c-0.234-0.078-0.475-0.117-0.713-0.119h-0.007
					c-0.009,0-0.018,0.002-0.026,0.002c-0.161,0.002-0.321,0.023-0.479,0.059c-0.035,0.008-0.069,0.014-0.104,0.023
					c-0.156,0.042-0.308,0.098-0.452,0.172c-0.021,0.01-0.04,0.023-0.061,0.035c-0.127,0.069-0.247,0.152-0.36,0.246
					c-0.025,0.021-0.052,0.041-0.076,0.063c-0.108,0.098-0.212,0.204-0.302,0.323l-47.955,63.902
					c-0.525,0.699-0.609,1.637-0.218,2.42s1.191,1.277,2.066,1.277h47.955c1.276,0,2.311-1.034,2.311-2.311v-6.136V212.219z"/>
				<path fill="#2F4657" d="M1566.476,267.674v-57.766h-116.657h-107.579h-94.511c0.238,0.002,0.479,0.041,0.713,0.119
					c0.943,0.314,1.58,1.197,1.58,2.191v57.767h90.369h107.579h120.816c-0.244,0-0.491-0.038-0.73-0.118
					C1567.112,269.552,1566.476,268.669,1566.476,267.674z"/>
				<path fill="#FFB5CD" d="M1570.449,269.256c-0.056,0.059-0.106,0.123-0.167,0.176
					C1570.343,269.379,1570.393,269.314,1570.449,269.256z"/>
				<path fill="#FFB5CD" d="M1570.021,269.609c-0.063,0.041-0.122,0.089-0.188,0.123
					C1569.899,269.698,1569.958,269.65,1570.021,269.609z"/>
				<path fill="#FFB5CD" d="M1569.514,269.853c-0.063,0.021-0.123,0.052-0.188,0.067
					C1569.391,269.904,1569.45,269.873,1569.514,269.853z"/>
				<path fill="#193145" d="M1618.808,202.74c-0.392-0.783-1.191-1.278-2.066-1.278h-47.955c-1.276,0-2.311,1.034-2.311,2.311v6.136
					v57.766c0,0.995,0.637,1.878,1.58,2.193c0.239,0.08,0.486,0.118,0.73,0.118c0.184,0,0.364-0.023,0.54-0.065
					c0.064-0.016,0.124-0.047,0.188-0.067c0.108-0.036,0.217-0.069,0.318-0.12c0.066-0.034,0.126-0.082,0.188-0.123
					c0.089-0.057,0.18-0.109,0.262-0.178c0.061-0.053,0.111-0.117,0.167-0.176c0.062-0.064,0.131-0.121,0.186-0.194l47.955-63.901
					C1619.115,204.459,1619.199,203.522,1618.808,202.74z"/>
			</g>
			<g>
				<path fill="#193145" d="M1609.665,341.4h-402.833c-5.184,0-9.387,4.202-9.387,9.386v46.743c0,5.184,4.203,9.387,9.387,9.387
					h190.223l11.193,15.949l11.193-15.949h190.224c5.184,0,9.387-4.203,9.387-9.387v-46.743
					C1619.052,345.603,1614.849,341.4,1609.665,341.4z"/>
				<path fill="#2F4657" d="M1619.052,350.707c0,5.139-4.166,9.306-9.306,9.306h-402.994c-5.141,0-9.307-4.167-9.307-9.306l0,0
					c0-5.14,4.166-9.307,9.307-9.307h402.994C1614.886,341.4,1619.052,345.567,1619.052,350.707L1619.052,350.707z"/>
			</g>
			<g>
				<path fill="#193145" d="M1616.994,594.534c-1.267-0.72-2.808-0.656-4.017,0.169l-6.029,4.114l-6.626-4.522
					c-1.302-0.889-2.981-0.889-4.285,0l-6.627,4.522l-6.626-4.522c-1.304-0.889-2.983-0.887-4.287,0.002l-6.623,4.521l-6.624-4.522
					c-1.305-0.889-2.983-0.889-4.287,0l-6.627,4.522l-6.031-4.114c-1.303-0.889-2.981-0.889-4.285,0l-6.027,4.114l-6.625-4.522
					c-1.304-0.889-2.983-0.889-4.287,0l-6.627,4.522l-6.627-4.522c-1.304-0.889-2.983-0.887-4.287,0.002l-6.622,4.521l-6.625-4.522
					c-1.304-0.889-2.984-0.889-4.287,0l-6.626,4.522l-6.031-4.114c-1.302-0.889-2.982-0.889-4.286,0l-6.027,4.114l-6.624-4.522
					c-1.305-0.889-2.983-0.889-4.288,0l-6.624,4.522l-6.631-4.522c-1.3-0.887-2.981-0.887-4.285,0.002l-6.623,4.521l-6.624-4.522
					c-1.304-0.889-2.985-0.889-4.287,0l-6.627,4.522l-6.03-4.114c-1.305-0.889-2.981-0.889-4.287,0l-6.026,4.114l-6.625-4.522
					c-1.304-0.889-2.983-0.889-4.287,0l-6.625,4.522l-6.628-4.522c-1.303-0.889-2.983-0.887-4.285,0.002l-6.623,4.521l-6.627-4.522
					c-0.651-0.443-1.396-0.666-2.144-0.666s-1.489,0.223-2.142,0.666l-6.626,4.522l-6.033-4.114c-1.302-0.889-2.983-0.889-4.285,0
					l-6.028,4.114l-6.624-4.522c-1.304-0.889-2.983-0.889-4.287,0l-6.625,4.522l-6.627-4.522c-1.306-0.889-2.983-0.887-4.289,0.002
					l-6.622,4.521l-6.625-4.522c-1.304-0.889-2.983-0.889-4.287,0l-6.625,4.522l-6.03-4.114c-1.304-0.889-2.983-0.889-4.287,0
					l-6.028,4.114l-6.625-4.522c-1.304-0.889-2.982-0.889-4.287,0l-6.624,4.522l-6.631-4.522c-1.3-0.887-2.981-0.887-4.283,0.002
					l-6.625,4.521l-6.624-4.522c-1.305-0.889-2.983-0.889-4.287,0l-6.625,4.522l-6.032-4.114c-1.207-0.825-2.749-0.889-4.018-0.167
					c-1.267,0.723-2.057,2.112-2.057,3.625v20.85v24.004v20.849c0,1.512,0.789,2.904,2.057,3.627
					c1.267,0.72,2.809,0.656,4.018-0.169l6.029-4.114l6.625,4.522c1.302,0.889,2.981,0.889,4.285,0l6.627-4.522l6.627,4.522
					c1.304,0.889,2.983,0.888,4.287-0.001l6.622-4.521l6.625,4.522c1.304,0.889,2.983,0.889,4.287,0l6.627-4.522l6.03,4.114
					c1.303,0.89,2.982,0.889,4.285,0l6.028-4.114l6.625,4.522c1.304,0.889,2.982,0.889,4.287,0l6.627-4.522l6.626,4.522
					c1.304,0.889,2.983,0.888,4.287-0.001l6.623-4.521l6.624,4.522c1.305,0.889,2.984,0.889,4.287,0l6.626-4.522l6.031,4.114
					c1.302,0.89,2.982,0.89,4.286,0l6.027-4.114l6.625,4.522c1.304,0.889,2.983,0.889,4.287,0l6.625-4.522l6.631,4.522
					c1.3,0.888,2.98,0.888,4.285-0.001l6.622-4.521l6.625,4.522c1.304,0.889,2.985,0.889,4.287,0l6.627-4.522l6.03,4.114
					c1.304,0.89,2.98,0.889,4.287,0l6.026-4.114l6.624,4.522c1.305,0.889,2.983,0.889,4.287,0l6.625-4.522l6.629,4.522
					c1.302,0.889,2.983,0.888,4.285-0.001l6.622-4.521l6.627,4.522c0.652,0.444,1.396,0.666,2.144,0.666s1.49-0.222,2.142-0.666
					l6.627-4.522l6.032,4.114c1.302,0.89,2.983,0.89,4.285,0l6.028-4.114l6.625,4.522c1.304,0.889,2.983,0.889,4.287,0l6.624-4.522
					l6.627,4.522c1.307,0.889,2.983,0.888,4.289-0.001l6.623-4.521l6.625,4.522c1.304,0.889,2.982,0.889,4.287,0l6.624-4.522
					l6.03,4.114c1.305,0.89,2.983,0.889,4.287,0l6.029-4.114l6.624,4.522c1.304,0.889,2.983,0.889,4.287,0l6.625-4.522l6.631,4.522
					c1.3,0.888,2.981,0.888,4.283-0.001l6.624-4.521l6.625,4.522c1.304,0.889,2.983,0.889,4.287,0l6.625-4.522l6.032,4.114
					c1.207,0.825,2.748,0.889,4.017,0.167c1.267-0.722,2.057-2.113,2.057-3.625v-20.849v-24.004v-20.85
					C1619.051,596.648,1618.262,595.256,1616.994,594.534z"/>
				<rect x="1197.444" y="602.171" fill="#2F4657" width="421.606" height="57.683"/>
			</g>
			<g>
				<g>
					<g>
						<path fill="#2F4657" d="M1210.402,799.952h-10.006c-2.291,0-4.148,1.856-4.148,4.149c0,2.292,1.857,4.147,4.148,4.149
							l10.006-0.002c2.295,0,4.15-1.854,4.152-4.148C1214.555,801.809,1212.695,799.952,1210.402,799.952z"/>
					</g>
					<g>
						<path fill="#2F4657" d="M1202.66,771.302c0-2.127-1.594-3.878-3.648-4.136c0,0-0.006-0.001-0.008-0.001
							c-0.168-0.021-0.342-0.035-0.518-0.035c-0.174,0-0.346,0.015-0.516,0.036c0,0-0.004-0.002-0.008,0
							c-2.057,0.258-3.648,2.009-3.648,4.136c0,2.306,1.871,4.174,4.172,4.174C1200.791,775.476,1202.66,773.607,1202.66,771.302z"
							/>
					</g>
					<g>
						<path fill="#2F4657" d="M1606.092,742.771h10.006c2.291,0,4.148-1.856,4.148-4.148c0-2.293-1.857-4.148-4.148-4.149
							l-10.006,0.001c-2.295,0-4.15,1.854-4.15,4.149C1601.941,740.914,1603.799,742.771,1606.092,742.771z"/>
					</g>
					<g>
						<path fill="#2F4657" d="M1618.008,767.248c-2.305,0-4.174,1.867-4.174,4.173c0,2.127,1.594,3.878,3.648,4.136
							c0.004,0.002,0.008,0.002,0.008,0.002c0.17,0.021,0.342,0.035,0.518,0.035s0.346-0.015,0.516-0.037c0,0,0.004,0.003,0.008,0
							c2.059-0.258,3.648-2.009,3.648-4.136C1622.18,769.115,1620.311,767.248,1618.008,767.248z"/>
					</g>
					<g>
						<path fill="#2F4657" d="M1565.063,759.137h40.461c2.559,0,4.648-1.851,4.648-4.111s-2.09-4.111-4.648-4.111H1586.1
							c-0.148-0.012-0.299-0.021-0.449-0.021h-0.838c-2.35-0.199-4.199-1.964-4.199-4.088c0-2.26,2.09-4.112,4.648-4.112h7.055
							c2.557,0,4.648-1.849,4.65-4.109c-0.002-2.261-2.094-4.11-4.65-4.111h-215.375l0,0H1224.18c-2.557,0-4.65,1.85-4.65,4.112
							c0,2.26,2.094,4.108,4.65,4.108h7.055c2.557,0,4.648,1.853,4.648,4.111c0,2.124-1.852,3.889-4.197,4.09h-0.84
							c-0.152,0-0.301,0.008-0.451,0.02l-19.422,0.002c-2.559-0.002-4.65,1.848-4.65,4.111c0,2.259,2.092,4.109,4.648,4.109h40.463
							c2.34,0.209,4.18,1.968,4.18,4.09c0,1.855-1.408,3.431-3.326,3.938c-0.002,0-0.002,0-0.002-0.001l-41.313,0.002
							c-0.01,0-0.02,0-0.027,0c-2.543,0.013-4.623,1.858-4.623,4.109c0,0.027,0.004,0.056,0.004,0.086s-0.004,0.059-0.004,0.086
							c0,2.261,2.094,4.111,4.65,4.111h41.313c1.92,0.506,3.328,2.083,3.328,3.938c0,2.122-1.842,3.881-4.182,4.089h-40.459
							c-2.559,0-4.65,1.851-4.65,4.111s2.092,4.111,4.65,4.111h19.424c0.148,0.013,0.297,0.021,0.449,0.021h0.838
							c2.348,0.2,4.199,1.964,4.199,4.089c0,2.26-2.09,4.112-4.648,4.112h-7.057c-2.555,0-4.646,1.848-4.648,4.108
							c0,2.262,2.094,4.11,4.65,4.112h313.115l0,0h55.021c2.557,0,4.648-1.85,4.648-4.113c0-2.26-2.092-4.107-4.648-4.107h-7.055
							c-2.557,0-4.648-1.853-4.648-4.111c0-2.124,1.85-3.889,4.197-4.091h0.84c0.15,0,0.301-0.007,0.451-0.02l19.422-0.001
							c2.557,0.001,4.648-1.849,4.648-4.111c0.002-2.26-2.09-4.11-4.648-4.11h-40.461c-2.34-0.208-4.18-1.967-4.18-4.089
							c-0.002-1.855,1.406-3.432,3.326-3.938v0.001l41.314-0.003c0.008,0,0.02,0,0.025,0c2.545-0.012,4.623-1.857,4.623-4.108
							c0-0.028-0.004-0.057-0.004-0.087s0.004-0.059,0.004-0.085c0-2.261-2.094-4.111-4.648-4.111h-41.313
							c-1.92-0.507-3.328-2.083-3.328-3.938C1560.881,761.104,1562.723,759.346,1565.063,759.137z"/>
					</g>
				</g>
			</g>
			<g>
				<path fill="#2F4657" d="M1622.447,878.184c0-5.226-4.237-9.464-9.465-9.464c-3.701,0-6.904,2.126-8.459,5.223
					c-1.557-3.097-4.759-5.223-8.461-5.223c-3.7,0-6.903,2.126-8.46,5.223c-1.555-3.097-4.758-5.223-8.458-5.223
					c-3.703,0-6.906,2.126-8.461,5.223c-1.557-3.097-4.759-5.223-8.46-5.223c-3.702,0-6.904,2.126-8.461,5.223
					c-1.555-3.097-4.758-5.223-8.458-5.223c-3.701,0-6.906,2.126-8.461,5.223c-1.555-3.097-4.758-5.223-8.459-5.223
					c-3.702,0-6.905,2.126-8.46,5.223c-1.557-3.097-4.759-5.223-8.46-5.223s-6.904,2.126-8.46,5.223
					c-1.556-3.097-4.758-5.223-8.459-5.223c-3.702,0-6.905,2.126-8.46,5.223c-1.558-3.097-4.76-5.223-8.461-5.223
					s-6.903,2.126-8.46,5.223c-1.556-3.097-4.758-5.223-8.459-5.223s-6.905,2.126-8.46,5.223c-1.556-3.097-4.758-5.223-8.46-5.223
					c-3.701,0-6.904,2.126-8.46,5.223c-1.556-3.097-4.759-5.223-8.46-5.223c-3.7,0-6.905,2.126-8.46,5.223
					c-1.556-3.097-4.758-5.223-8.459-5.223c-3.702,0-6.905,2.126-8.46,5.223c-1.557-3.097-4.76-5.223-8.461-5.223
					s-6.903,2.126-8.46,5.223c-1.556-3.097-4.76-5.223-8.459-5.223c-3.702,0-6.905,2.126-8.46,5.223
					c-1.557-3.097-4.76-5.223-8.46-5.223c-3.702,0-6.904,2.126-8.461,5.223c-1.556-3.097-4.758-5.223-8.459-5.223
					s-6.905,2.126-8.46,5.223c-1.556-3.097-4.76-5.223-8.46-5.223c-3.701,0-6.905,2.126-8.459,5.223
					c-1.558-3.097-4.76-5.223-8.461-5.223s-6.905,2.126-8.46,5.223c-1.556-3.097-4.76-5.223-8.46-5.223
					c-3.702,0-6.905,2.126-8.459,5.223c-1.557-3.097-4.76-5.223-8.46-5.223c-3.702,0-6.906,2.126-8.461,5.223
					c-1.556-3.097-4.758-5.223-8.46-5.223s-6.904,2.126-8.46,5.223c-1.556-3.097-4.759-5.223-8.459-5.223
					c-3.702,0-6.905,2.126-8.46,5.223c-1.557-3.097-4.759-5.223-8.461-5.223s-6.904,2.126-8.46,5.223
					c-1.556-3.097-4.759-5.223-8.46-5.223c-5.189,0-9.397,4.179-9.458,9.352h-0.006v46.533c0,4.703,3.813,8.516,8.517,8.516h407.788
					c4.704,0,8.517-3.813,8.517-8.516v-46.421H1622.447z"/>
				<path fill="#193145" d="M1622.447,897.182c0-5.226-4.237-9.464-9.465-9.464c-3.701,0-6.904,2.126-8.459,5.223
					c-1.557-3.097-4.759-5.223-8.461-5.223c-3.7,0-6.903,2.126-8.46,5.223c-1.555-3.097-4.758-5.223-8.458-5.223
					c-3.703,0-6.906,2.126-8.461,5.223c-1.557-3.097-4.759-5.223-8.46-5.223c-3.702,0-6.904,2.126-8.461,5.223
					c-1.555-3.097-4.758-5.223-8.458-5.223c-3.701,0-6.906,2.126-8.461,5.223c-1.555-3.097-4.758-5.223-8.459-5.223
					c-3.702,0-6.905,2.126-8.46,5.223c-1.557-3.097-4.759-5.223-8.46-5.223s-6.904,2.126-8.46,5.223
					c-1.556-3.097-4.758-5.223-8.459-5.223c-3.702,0-6.905,2.126-8.46,5.223c-1.558-3.097-4.76-5.223-8.461-5.223
					s-6.903,2.126-8.46,5.223c-1.556-3.097-4.758-5.223-8.459-5.223s-6.905,2.126-8.46,5.223c-1.556-3.097-4.758-5.223-8.46-5.223
					c-3.701,0-6.904,2.126-8.46,5.223c-1.556-3.097-4.759-5.223-8.46-5.223c-3.7,0-6.905,2.126-8.46,5.223
					c-1.556-3.097-4.758-5.223-8.459-5.223c-3.702,0-6.905,2.126-8.46,5.223c-1.557-3.097-4.76-5.223-8.461-5.223
					s-6.903,2.126-8.46,5.223c-1.556-3.097-4.76-5.223-8.459-5.223c-3.702,0-6.905,2.126-8.46,5.223
					c-1.557-3.097-4.76-5.223-8.46-5.223c-3.702,0-6.904,2.126-8.461,5.223c-1.556-3.097-4.758-5.223-8.459-5.223
					s-6.905,2.126-8.46,5.223c-1.556-3.097-4.76-5.223-8.46-5.223c-3.701,0-6.905,2.126-8.459,5.223
					c-1.558-3.097-4.76-5.223-8.461-5.223s-6.905,2.126-8.46,5.223c-1.556-3.097-4.76-5.223-8.46-5.223
					c-3.702,0-6.905,2.126-8.459,5.223c-1.557-3.097-4.76-5.223-8.46-5.223c-3.702,0-6.906,2.126-8.461,5.223
					c-1.556-3.097-4.758-5.223-8.46-5.223s-6.904,2.126-8.46,5.223c-1.556-3.097-4.759-5.223-8.459-5.223
					c-3.702,0-6.905,2.126-8.46,5.223c-1.557-3.097-4.759-5.223-8.461-5.223s-6.904,2.126-8.46,5.223
					c-1.556-3.097-4.759-5.223-8.46-5.223c-5.189,0-9.397,4.179-9.458,9.352h-0.006v20.006c0,4.703,3.813,8.516,8.517,8.516h407.788
					c4.704,0,8.517-3.813,8.517-8.516v-19.894H1622.447z"/>
				<path fill="#041F33" d="M1622.447,918.184c0-5.226-4.237-9.464-9.465-9.464c-3.701,0-6.904,2.126-8.459,5.223
					c-1.557-3.097-4.759-5.223-8.461-5.223c-3.7,0-6.903,2.126-8.46,5.223c-1.555-3.097-4.758-5.223-8.458-5.223
					c-3.703,0-6.906,2.126-8.461,5.223c-1.557-3.097-4.759-5.223-8.46-5.223c-3.702,0-6.904,2.126-8.461,5.223
					c-1.555-3.097-4.758-5.223-8.458-5.223c-3.701,0-6.906,2.126-8.461,5.223c-1.555-3.097-4.758-5.223-8.459-5.223
					c-3.702,0-6.905,2.126-8.46,5.223c-1.557-3.097-4.759-5.223-8.46-5.223s-6.904,2.126-8.46,5.223
					c-1.556-3.097-4.758-5.223-8.459-5.223c-3.702,0-6.905,2.126-8.46,5.223c-1.558-3.097-4.76-5.223-8.461-5.223
					s-6.903,2.126-8.46,5.223c-1.556-3.097-4.758-5.223-8.459-5.223s-6.905,2.126-8.46,5.223c-1.556-3.097-4.758-5.223-8.46-5.223
					c-3.701,0-6.904,2.126-8.46,5.223c-1.556-3.097-4.759-5.223-8.46-5.223c-3.7,0-6.905,2.126-8.46,5.223
					c-1.556-3.097-4.758-5.223-8.459-5.223c-3.702,0-6.905,2.126-8.46,5.223c-1.557-3.097-4.76-5.223-8.461-5.223
					s-6.903,2.126-8.46,5.223c-1.556-3.097-4.76-5.223-8.459-5.223c-3.702,0-6.905,2.126-8.46,5.223
					c-1.557-3.097-4.76-5.223-8.46-5.223c-3.702,0-6.904,2.126-8.461,5.223c-1.556-3.097-4.758-5.223-8.459-5.223
					s-6.905,2.126-8.46,5.223c-1.556-3.097-4.76-5.223-8.46-5.223c-3.701,0-6.905,2.126-8.459,5.223
					c-1.558-3.097-4.76-5.223-8.461-5.223s-6.905,2.126-8.46,5.223c-1.556-3.097-4.76-5.223-8.46-5.223
					c-3.702,0-6.905,2.126-8.459,5.223c-1.557-3.097-4.76-5.223-8.46-5.223c-3.702,0-6.906,2.126-8.461,5.223
					c-1.556-3.097-4.758-5.223-8.46-5.223s-6.904,2.126-8.46,5.223c-1.556-3.097-4.759-5.223-8.459-5.223
					c-3.702,0-6.905,2.126-8.46,5.223c-1.557-3.097-4.759-5.223-8.461-5.223s-6.904,2.126-8.46,5.223
					c-1.556-3.097-4.759-5.223-8.46-5.223c-5.189,0-9.397,4.179-9.458,9.352h-0.006v6.005c0,4.703,3.813,8.516,8.517,8.516h407.788
					c4.704,0,8.517-3.813,8.517-8.516v-5.893H1622.447z"/>
			</g>
		</g>
		<g>
			
				<text transform="matrix(1 0 0 1 566.6631 500.0366)" fill="#193145" font-family="'Lato-Black'" font-size="51.9263" letter-spacing="1">RIBBONS COLLECTION</text>
		</g>
	</g>
</g>
<g id="Vexels">
	<g>
		<g>
			<path fill="#FFFFFF" d="M2477.897,335.484h-644.659c-10.94,0-19.811,8.87-19.811,19.81v268.082l-62.03,19.923l62.03,18.008
				v186.82c0,10.939,8.87,19.81,19.811,19.81h644.659c10.94,0,19.811-8.87,19.811-19.81V355.294
				C2497.708,344.354,2488.838,335.484,2477.897,335.484z"/>
			<rect x="1877.998" y="402.472" fill="none" width="583.032" height="407.034"/>
			<text transform="matrix(1 0 0 1 1877.998 419.5122)"><tspan x="0" y="0" fill="#333333" font-family="'MyriadPro-Regular'" font-size="24">This design was made by vexels.com. It’s under Creative </tspan><tspan x="0" y="28.8" fill="#333333" font-family="'MyriadPro-Regular'" font-size="24">Commons 3.0 Attribution License, so you can use this </tspan><tspan x="0" y="57.6" fill="#333333" font-family="'MyriadPro-Regular'" font-size="24">vector (even commercially) as long as you credit us. If you </tspan><tspan x="0" y="86.4" fill="#333333" font-family="'MyriadPro-Regular'" font-size="24">don’t want to credit, you can buy a license. Learn more on </tspan><tspan x="0" y="115.2" fill="#C64B09" font-family="'MyriadPro-Regular'" font-size="24">www.vexels.com/terms-and-conditions/</tspan><tspan x="0" y="201.599" fill="#333333" font-family="'MyriadPro-Regular'" font-size="24">You can’t sublicense, redistribute or resell an image or </tspan><tspan x="0" y="230.4" fill="#333333" font-family="'MyriadPro-Regular'" font-size="24">part of it. You can’t use our contents for products where </tspan><tspan x="0" y="259.2" fill="#333333" font-family="'MyriadPro-Regular'" font-size="24">the design is the main reason it’s being purchased either.</tspan><tspan x="0" y="316.8" fill="#333333" font-family="'MyriadPro-Regular'" font-size="24">Thanks!</tspan><tspan x="0" y="345.599" fill="#333333" font-family="'MyriadPro-Regular'" font-size="24">Vexels Team</tspan></text>
		</g>
	</g>
	<g>
		<g>
			<g>
				<path fill="#2F4657" d="M854.61,525.52l-0.874-1.891c-0.429-0.91-1.572-1.333-2.531-0.941c-1.039,0.356-1.503,1.429-1.075,2.307
					l0.982,2.127l7.764,16.846c0.073,0.066,0.144,0.194,0.176,0.261c0,0.031,0.043,0.031,0.043,0.031
					c0.034,0.064,0.105,0.131,0.178,0.197c0,0.063,0.033,0.063,0.033,0.095c0.105,0.066,0.179,0.1,0.248,0.164
					c0.036,0,0.036,0,0.036,0c0.107,0.064,0.252,0.162,0.323,0.194c0.035,0,0.035,0,0.035,0s0.037,0,0.037,0.034
					c0.07,0,0.213,0.032,0.285,0.062c0.031,0,0.07,0,0.07,0c0.106,0.033,0.25,0.033,0.36,0.033c0.104,0,0.214,0,0.356-0.033
					c0.033,0,0.067,0,0.067,0c0.107-0.029,0.179-0.062,0.288-0.062c0.036-0.034,0.036-0.034,0.069-0.034
					c0.109-0.032,0.217-0.13,0.288-0.165c0.07-0.029,0.07-0.029,0.07-0.029c0.071-0.064,0.141-0.098,0.211-0.164
					c0.039-0.031,0.039-0.031,0.073-0.095c0.037-0.066,0.143-0.133,0.177-0.197c0.035,0,0.035,0,0.035-0.031
					c0.075-0.066,0.113-0.194,0.148-0.261l0.332-0.715l-2.116-4.582L854.61,525.52z M930.335,525.385
					c0.605-0.813,0.466-1.917-0.426-2.472c-0.894-0.617-2.073-0.454-2.749,0.392l-4.069,5.073l2.423,2.965L930.335,525.385z
					 M870.228,522.688c-0.961-0.392-2.14,0.031-2.567,0.941l-5.173,11.173l2.123,4.586l6.689-14.394
					C871.692,524.116,871.23,523.044,870.228,522.688z M824.151,515.819c-0.841-0.84-1.957-1.301-3.143-1.301
					s-2.302,0.461-3.142,1.301l-14.381,14.384c-1.729,1.735-1.729,4.55,0,6.279l14.381,14.386c0.84,0.838,1.956,1.298,3.142,1.298
					s2.302-0.46,3.143-1.296l14.38-14.388c0.841-0.842,1.303-1.952,1.303-3.142c0-1.182-0.462-2.298-1.303-3.138L824.151,515.819z
					 M836.3,534.634l-14,13.999c-0.691,0.691-1.891,0.691-2.576,0l-14.002-13.999c-0.712-0.712-0.712-1.869-0.004-2.582l14.006-14
					c0.011-0.012,0.022-0.023,0.036-0.031v11.602c-0.569,0.194-1.097,0.499-1.533,0.938c-0.744,0.744-1.151,1.729-1.151,2.781
					c0,1.053,0.407,2.045,1.151,2.782c0.741,0.748,1.731,1.156,2.78,1.156c1.054,0,2.042-0.406,2.787-1.156
					c1.533-1.53,1.533-4.029,0-5.567c-0.438-0.438-0.963-0.739-1.534-0.934v-11.602c0.012,0.008,0.026,0.02,0.04,0.031l14,14
					c0.346,0.344,0.53,0.805,0.53,1.289C836.83,533.828,836.646,534.283,836.3,534.634z M923.556,533.764l-2.396-2.989l-6.028-7.47
					c-0.611-0.846-1.859-1.009-2.717-0.392c-0.892,0.555-1.07,1.658-0.465,2.472l6.784,8.379l-6.784,8.449
					c-0.605,0.778-0.427,1.917,0.465,2.469c0.322,0.228,0.717,0.356,1.143,0.356c0.607,0,1.178-0.294,1.574-0.747l6.028-7.504
					l6.441,8.058c0.372,0.463,0.96,0.703,1.505,0.703c0.41,0,0.886-0.188,1.229-0.461c0.81-0.645,0.871-1.811,0.225-2.616
					L923.556,533.764z M891.988,522.335c-5.772,0-10.473,5.104-10.473,11.377c0,6.223,4.7,11.29,10.473,11.29
					c3.544,0,6.813-1.936,8.737-5.178c0.465-0.839,0.232-1.88-0.587-2.502c-0.264-0.17-0.574-0.261-0.893-0.261
					c-0.617,0-1.166,0.33-1.464,0.872c-1.209,2.132-3.43,3.453-5.794,3.453c-3.501,0-6.405-2.786-6.927-6.558h15.578
					c0.975,0,1.735-0.756,1.735-1.724l-0.002-0.229C901.93,526.867,897.465,522.335,891.988,522.335z M885.315,531.257
					c0.947-3.196,3.566-5.307,6.673-5.307c3.044,0,5.676,2.158,6.562,5.307H885.315z M981.233,541.33c-0.036,0-2.684,0-2.723,0
					c-1.008,0-2.182-0.583-2.182-2.213v-18.092c0-1.063-0.868-1.927-1.937-1.927c-1.026,0-1.93,0.902-1.93,1.927v18.092
					c0,3.577,2.376,5.888,6.048,5.888c0.049,0,2.701,0,2.747-0.003c0.953-0.068,1.703-0.866,1.703-1.836
					C982.961,542.193,982.197,541.387,981.233,541.33z M1010.773,535.357c-0.821-1.205-2.106-2.049-3.571-2.695
					c-1.426-0.619-3.105-1.041-4.924-1.364h-0.074c-1.924-0.326-3.53-0.849-4.458-1.433c-0.466-0.289-0.79-0.581-0.968-0.844
					c-0.178-0.257-0.249-0.521-0.249-0.907c0-0.685,0.392-1.396,1.36-2.047c0.961-0.649,2.391-1.106,3.994-1.106
					c2.178,0,3.925,0.975,5.748,2.08c0.857,0.518,2,0.29,2.534-0.487c0.57-0.748,0.321-1.789-0.497-2.306
					c-1.822-1.072-4.359-2.603-7.785-2.603c-2.322,0-4.494,0.618-6.174,1.723c-1.644,1.109-2.857,2.794-2.857,4.746
					c0,0.973,0.285,1.883,0.824,2.66c0.781,1.14,1.962,1.953,3.313,2.534c1.359,0.586,2.934,0.977,4.605,1.269h0.075
					c2.104,0.356,3.855,0.908,4.891,1.526c0.533,0.327,0.854,0.649,1.07,0.976c0.215,0.327,0.32,0.615,0.32,1.038
					c0,0.813-0.462,1.626-1.537,2.341c-1.068,0.713-2.676,1.203-4.457,1.203c-2.538,0.03-5.25-1.335-6.818-2.502
					c-0.789-0.588-1.965-0.489-2.607,0.222c-0.607,0.717-0.502,1.79,0.284,2.374c2.038,1.465,5.283,3.221,9.142,3.25
					c2.531,0,4.853-0.682,6.604-1.849c1.783-1.173,3.066-2.957,3.066-5.039C1011.628,537.108,1011.31,536.137,1010.773,535.357z
					 M951.597,522.335c-5.772,0-10.47,5.104-10.47,11.377c0,6.223,4.697,11.29,10.47,11.29c3.55,0,6.812-1.936,8.742-5.178
					c0.462-0.839,0.229-1.88-0.587-2.502c-0.267-0.17-0.575-0.261-0.894-0.261c-0.617,0-1.164,0.33-1.464,0.872
					c-1.209,2.132-3.431,3.453-5.798,3.453c-3.502,0-6.405-2.786-6.925-6.558h15.58c0.972,0,1.735-0.756,1.735-1.724v-0.229
					C961.543,526.867,957.077,522.335,951.597,522.335z M944.926,531.257c0.945-3.196,3.567-5.307,6.671-5.307
					c3.051,0,5.678,2.158,6.564,5.307H944.926z"/>
			</g>
			<g>
				<path fill="#2F4657" d="M696.553,534.851c0,0.677,0.006,1.288,0.017,1.839c0.014,0.546,0.075,1.087,0.181,1.618h-1.072
					l-0.396-1.409H695.2c-0.263,0.462-0.646,0.846-1.151,1.15c-0.502,0.304-1.089,0.456-1.767,0.456
					c-1.322,0-2.307-0.414-2.949-1.251c-0.641-0.833-0.961-2.137-0.961-3.913c0-1.692,0.4-2.979,1.202-3.859
					c0.8-0.879,1.901-1.318,3.304-1.318c0.489,0,0.878,0.025,1.162,0.077c0.285,0.053,0.591,0.138,0.923,0.259v-4.13h1.59V534.851z
					 M692.542,537.117c0.674,0,1.209-0.178,1.608-0.528c0.396-0.351,0.666-0.883,0.813-1.599v-4.923
					c-0.239-0.185-0.508-0.317-0.813-0.398c-0.308-0.079-0.709-0.118-1.212-0.118c-0.913,0-1.628,0.303-2.145,0.905
					c-0.516,0.601-0.773,1.563-0.773,2.885c0,0.544,0.043,1.048,0.129,1.51c0.084,0.467,0.227,0.861,0.427,1.192
					c0.198,0.332,0.459,0.593,0.785,0.785C691.685,537.02,692.078,537.117,692.542,537.117z"/>
				<path fill="#2F4657" d="M706.856,537.473c-0.398,0.319-0.896,0.569-1.498,0.755c-0.604,0.186-1.242,0.277-1.917,0.277
					c-0.754,0-1.411-0.122-1.966-0.368c-0.555-0.243-1.014-0.594-1.369-1.052c-0.358-0.457-0.623-1.004-0.795-1.639
					c-0.173-0.634-0.26-1.347-0.26-2.142c0-1.694,0.38-2.987,1.134-3.875c0.754-0.884,1.832-1.33,3.236-1.33
					c0.45,0,0.897,0.052,1.35,0.152c0.45,0.097,0.854,0.286,1.21,0.565c0.357,0.277,0.649,0.673,0.875,1.18
					c0.225,0.511,0.338,1.182,0.338,2.015c0,0.438-0.04,0.922-0.121,1.449h-6.372c0,0.583,0.059,1.1,0.179,1.551
					c0.119,0.45,0.303,0.83,0.557,1.14c0.252,0.312,0.578,0.552,0.982,0.716c0.404,0.166,0.896,0.25,1.479,0.25
					c0.45,0,0.899-0.082,1.352-0.241c0.449-0.157,0.786-0.344,1.012-0.554L706.856,537.473z M703.441,529.493
					c-0.78,0-1.407,0.202-1.876,0.613c-0.473,0.411-0.753,1.112-0.844,2.105h4.923c0-1.007-0.191-1.711-0.575-2.115
					C704.684,529.692,704.144,529.493,703.441,529.493z"/>
				<path fill="#2F4657" d="M714.063,535.566c0-0.398-0.118-0.709-0.355-0.933c-0.241-0.226-0.535-0.413-0.886-0.565
					c-0.35-0.152-0.734-0.3-1.15-0.438c-0.418-0.138-0.802-0.318-1.152-0.535c-0.35-0.219-0.645-0.5-0.883-0.844
					c-0.237-0.345-0.357-0.81-0.357-1.392c0-0.952,0.27-1.648,0.813-2.093c0.542-0.444,1.298-0.668,2.264-0.668
					c0.715,0,1.315,0.064,1.798,0.192c0.482,0.124,0.902,0.273,1.26,0.447l-0.377,1.307c-0.307-0.144-0.674-0.272-1.102-0.384
					c-0.432-0.112-0.891-0.169-1.382-0.169c-0.583,0-1.009,0.097-1.279,0.296c-0.272,0.2-0.406,0.544-0.406,1.033
					c0,0.344,0.117,0.612,0.358,0.804c0.236,0.192,0.53,0.364,0.881,0.517s0.734,0.301,1.152,0.447
					c0.416,0.146,0.801,0.338,1.15,0.576c0.351,0.237,0.646,0.538,0.884,0.902c0.239,0.365,0.356,0.841,0.356,1.438
					c0,0.425-0.067,0.823-0.206,1.192c-0.14,0.372-0.354,0.689-0.646,0.953c-0.293,0.265-0.652,0.474-1.083,0.625
					c-0.43,0.151-0.935,0.229-1.518,0.229c-0.755,0-1.397-0.074-1.925-0.218c-0.531-0.146-0.975-0.317-1.332-0.516l0.476-1.351
					c0.306,0.172,0.703,0.33,1.193,0.478c0.488,0.146,0.984,0.219,1.487,0.219c0.569,0,1.04-0.114,1.409-0.34
					C713.876,536.552,714.063,536.15,714.063,535.566z"/>
				<path fill="#2F4657" d="M718.054,525.322c0-0.304,0.102-0.565,0.307-0.786c0.206-0.219,0.468-0.327,0.786-0.327
					c0.316,0,0.587,0.108,0.812,0.327c0.227,0.221,0.338,0.482,0.338,0.786c0,0.303-0.111,0.557-0.338,0.753
					c-0.225,0.2-0.495,0.3-0.812,0.3c-0.318,0-0.58-0.1-0.786-0.3C718.155,525.879,718.054,525.625,718.054,525.322z
					 M718.392,528.341h1.587v9.925h-1.587V528.341z"/>
				<path fill="#2F4657" d="M730.978,538.724c0,1.283-0.342,2.23-1.022,2.84c-0.683,0.607-1.689,0.912-3.027,0.912
					c-0.794,0-1.433-0.049-1.916-0.148c-0.481-0.1-0.897-0.229-1.242-0.388l0.419-1.351c0.305,0.122,0.642,0.233,1.012,0.339
					c0.37,0.107,0.854,0.159,1.45,0.159c0.556,0,1.008-0.051,1.358-0.149c0.352-0.099,0.633-0.266,0.844-0.498
					c0.212-0.229,0.358-0.529,0.438-0.894s0.119-0.798,0.119-1.3v-0.952h-0.079c-0.266,0.385-0.603,0.679-1.012,0.883
					c-0.411,0.206-0.946,0.31-1.61,0.31c-1.336,0-2.319-0.418-2.946-1.253c-0.63-0.833-0.944-2.13-0.944-3.893
					c0-1.692,0.404-2.979,1.211-3.859c0.808-0.879,1.998-1.318,3.573-1.318c0.755,0,1.401,0.058,1.938,0.178
					c0.535,0.118,1.015,0.259,1.438,0.416V538.724z M726.987,537.096c0.674,0,1.204-0.169,1.588-0.507
					c0.384-0.337,0.656-0.863,0.814-1.577v-5.083c-0.53-0.253-1.206-0.378-2.025-0.378c-0.9,0-1.607,0.307-2.124,0.913
					c-0.516,0.608-0.774,1.563-0.774,2.859c0,0.556,0.047,1.065,0.139,1.527c0.093,0.467,0.238,0.861,0.437,1.192
					c0.199,0.332,0.456,0.59,0.775,0.774C726.134,537.003,726.522,537.096,726.987,537.096z"/>
				<path fill="#2F4657" d="M740.407,538.266v-5.655c0-1.034-0.148-1.812-0.446-2.332c-0.298-0.524-0.844-0.785-1.638-0.785
					c-0.702,0-1.282,0.188-1.738,0.564c-0.455,0.377-0.777,0.852-0.963,1.42v6.788h-1.588v-9.925h1.111l0.299,1.21h0.079
					c0.318-0.424,0.744-0.773,1.28-1.043c0.537-0.27,1.176-0.408,1.916-0.408c0.545,0,1.02,0.064,1.429,0.192
					c0.411,0.124,0.752,0.345,1.024,0.662c0.27,0.317,0.476,0.746,0.613,1.281c0.142,0.536,0.209,1.215,0.209,2.036v5.994H740.407z"
					/>
				<path fill="#2F4657" d="M752.14,537.473c-0.396,0.319-0.895,0.569-1.496,0.755c-0.604,0.186-1.242,0.277-1.917,0.277
					c-0.755,0-1.411-0.122-1.966-0.368c-0.555-0.243-1.013-0.594-1.37-1.052c-0.356-0.457-0.622-1.004-0.794-1.639
					c-0.171-0.634-0.259-1.347-0.259-2.142c0-1.694,0.378-2.987,1.133-3.875c0.754-0.884,1.833-1.33,3.235-1.33
					c0.452,0,0.901,0.052,1.352,0.152c0.448,0.097,0.852,0.286,1.21,0.565c0.356,0.277,0.647,0.673,0.872,1.18
					c0.226,0.511,0.34,1.182,0.34,2.015c0,0.438-0.04,0.922-0.119,1.449h-6.375c0,0.583,0.063,1.1,0.18,1.551
					c0.119,0.45,0.305,0.83,0.557,1.14c0.252,0.312,0.578,0.552,0.981,0.716c0.404,0.166,0.897,0.25,1.479,0.25
					c0.451,0,0.901-0.082,1.352-0.241c0.449-0.157,0.785-0.344,1.012-0.554L752.14,537.473z M748.727,529.493
					c-0.78,0-1.405,0.202-1.876,0.613c-0.47,0.411-0.751,1.112-0.844,2.105h4.925c0-1.007-0.194-1.711-0.577-2.115
					C749.97,529.692,749.427,529.493,748.727,529.493z"/>
				<path fill="#2F4657" d="M762.606,534.851c0,0.677,0.004,1.288,0.018,1.839c0.015,0.546,0.073,1.087,0.178,1.618h-1.071
					l-0.396-1.409h-0.079c-0.266,0.462-0.65,0.846-1.15,1.15c-0.506,0.304-1.095,0.456-1.77,0.456c-1.321,0-2.306-0.414-2.948-1.251
					c-0.641-0.833-0.964-2.137-0.964-3.913c0-1.692,0.4-2.979,1.203-3.859c0.799-0.879,1.901-1.318,3.305-1.318
					c0.49,0,0.877,0.025,1.162,0.077c0.285,0.053,0.592,0.138,0.923,0.259v-4.13h1.591V534.851z M758.594,537.117
					c0.676,0,1.211-0.178,1.608-0.528c0.396-0.351,0.668-0.883,0.813-1.599v-4.923c-0.236-0.185-0.509-0.317-0.813-0.398
					c-0.303-0.079-0.709-0.118-1.213-0.118c-0.913,0-1.625,0.303-2.141,0.905c-0.518,0.601-0.776,1.563-0.776,2.885
					c0,0.544,0.043,1.048,0.13,1.51c0.085,0.467,0.229,0.861,0.426,1.192c0.199,0.332,0.459,0.593,0.785,0.785
					C757.738,537.02,758.13,537.117,758.594,537.117z"/>
				<path fill="#2F4657" d="M770.963,524.369h1.588v4.944h0.081c0.303-0.384,0.691-0.682,1.16-0.894s0.984-0.32,1.537-0.32
					c1.287,0,2.246,0.413,2.891,1.233c0.643,0.82,0.963,2.091,0.963,3.811c0,1.735-0.424,3.053-1.272,3.952
					c-0.846,0.9-2.038,1.349-3.572,1.349c-0.742,0-1.413-0.078-2.014-0.236c-0.604-0.159-1.057-0.331-1.361-0.517V524.369z
					 M775.053,529.493c-0.663,0-1.199,0.183-1.608,0.553c-0.412,0.371-0.707,0.896-0.894,1.569v5.002
					c0.251,0.146,0.559,0.258,0.913,0.331c0.357,0.071,0.729,0.108,1.112,0.108c0.898,0,1.619-0.32,2.154-0.954
					c0.535-0.636,0.802-1.627,0.802-2.977c0-0.516-0.046-1-0.137-1.451c-0.094-0.45-0.239-0.833-0.438-1.152
					c-0.198-0.317-0.452-0.569-0.762-0.751C775.883,529.585,775.501,529.493,775.053,529.493z"/>
				<path fill="#2F4657" d="M784.374,534.772l0.558,1.905h0.1l0.438-1.924l1.933-6.413h1.588l-2.938,8.913
					c-0.226,0.647-0.446,1.277-0.664,1.888c-0.219,0.607-0.462,1.149-0.725,1.628c-0.267,0.478-0.565,0.856-0.894,1.142
					c-0.332,0.284-0.714,0.425-1.152,0.425c-0.476,0-0.866-0.066-1.171-0.196l0.277-1.37c0.172,0.066,0.336,0.098,0.498,0.098
					c0.371,0,0.727-0.195,1.071-0.585c0.343-0.39,0.628-1.061,0.853-2.017l-3.99-9.925h1.825L784.374,534.772z"/>
			</g>
		</g>
	</g>
</g>
</svg>
